#!OML:ASF F:\twosubjects\two\Thursday\Session 1\justin.ASF
:FULLY-SPECIFIED
:DEGREES
257
root 13.1504 17.8624 14.6983 6.08776 13.9864 5.97868
lowerback 5.0194 -3.19004 -8.82673
upperback 0.933058 -4.68611 1.35167
thorax -1.01832 -2.32948 6.60159
lowerneck -8.65798 -15.8972 -19.7758
upperneck 13.1305 -21.906 17.1893
head 9.7272 -10.2328 5.86781
rclavicle -6.39093e-014 -9.14409e-015
rhumerus -32.4663 -32.1576 -64.9481
rradius 16.4142
rwrist 24.1499
rhand -9.83621 10.2439
rfingers 7.12502
rthumb 16.1414 -19.104
lclavicle -6.39093e-014 -9.14409e-015
lhumerus -24.9188 15.8255 71.5914
lradius 48.0248
lwrist -11.3437
lhand -3.21624 35.8354
lfingers 7.12502
lthumb 22.5064 64.5438
rfemur -38.6968 -0.818701 15.5395
rtibia 39.0471
rfoot -5.75644 -9.82773
rtoes 1.92515
lfemur 12.6814 0.587863 -21.9145
ltibia 20.8182
lfoot -6.09081 -18.5195
ltoes -38.3829
258
root 13.1724 17.8759 14.9188 5.57604 14.0417 5.39323
lowerback 4.96703 -3.15486 -8.24184
upperback 0.988477 -4.59934 1.548
thorax -0.976943 -2.29179 6.47069
lowerneck -8.63702 -15.6914 -19.5504
upperneck 13.4774 -21.6157 16.7906
head 9.70454 -10.112 5.76845
rclavicle 3.22031e-014 -1.98785e-015
rhumerus -34.0889 -34.874 -62.5955
rradius 16.2912
rwrist 26.0897
rhand -10.2267 9.34932
rfingers 7.12502
rthumb 15.7654 -20.0286
lclavicle 3.22031e-014 -1.98785e-015
lhumerus -25.6367 16.2759 71.5878
lradius 47.5556
lwrist -10.9439
lhand -3.33063 35.8911
lfingers 7.12502
lthumb 22.3966 64.6127
rfemur -37.9544 -0.701807 16.3554
rtibia 40.0841
rfoot -7.13419 -9.79644
rtoes 0.649398
lfemur 12.1676 0.315443 -21.0847
ltibia 23.1894
lfoot -2.86652 -19.6669
ltoes -35.9255
259
root 13.1853 17.8869 15.1413 4.79411 14.2473 4.08403
lowerback 5.14334 -3.14939 -6.97872
upperback 1.00077 -4.53239 1.96182
thorax -1.13981 -2.25483 6.20428
lowerneck -8.58955 -15.4319 -19.4003
upperneck 13.9842 -21.2421 16.2865
head 9.71348 -9.96313 5.66188
rclavicle -2.3059e-014 -3.73715e-014
rhumerus -35.2524 -36.2492 -61.0282
rradius 16.1285
rwrist 26.3433
rhand -10.9222 8.09022
rfingers 7.12502
rthumb 15.0955 -21.3393
lclavicle -2.3059e-014 -3.73715e-014
lhumerus -26.4325 16.5387 71.6172
lradius 47.0015
lwrist -10.3093
lhand -3.66566 36.5292
lfingers 7.12502
lthumb 22.075 65.2892
rfemur -36.9112 -0.656947 18.0357
rtibia 40.9458
rfoot -8.59898 -10.1037
rtoes -1.94562
lfemur 11.3904 -0.00399563 -19.4093
ltibia 25.9084
lfoot 0.972438 -20.6829
ltoes -32.3954
260
root 13.2038 17.8945 15.3515 4.43353 14.4838 3.74349
lowerback 5.10853 -3.21559 -6.68059
upperback 1.02988 -4.59853 2.16611
thorax -1.08632 -2.29235 6.24914
lowerneck -9.55268 -15.3546 -19.1563
upperneck 15.282 -20.9787 15.356
head 10.1389 -9.82312 5.29957
rclavicle 6.82825e-014 1.19271e-014
rhumerus -36.4561 -38.3722 -59.0596
rradius 15.871
rwrist 27.2766
rhand -11.6957 7.73943
rfingers 7.12502
rthumb 14.3502 -21.7446
lclavicle 6.82825e-014 1.19271e-014
lhumerus -27.0408 17.1471 71.6902
lradius 46.4838
lwrist -9.81478
lhand -4.3112 37.0124
lfingers 7.12502
lthumb 21.4551 65.8443
rfemur -36.137 -0.653959 18.5219
rtibia 41.7103
rfoot -9.51268 -10.5467
rtoes -1.26095
lfemur 10.3765 -0.343495 -18.8021
ltibia 28.4669
lfoot 4.78267 -21.4006
ltoes -29.4297
261
root 13.2327 17.9061 15.548 4.39943 14.7152 3.95018
lowerback 4.91916 -3.28902 -6.8022
upperback 0.96619 -4.69236 2.17026
thorax -1.02179 -2.34018 6.31405
lowerneck -9.65278 -15.0603 -19.009
upperneck 15.6949 -20.5923 15.2081
head 10.1952 -9.63899 5.30688
rclavicle 2.88238e-015 -2.8625e-014
rhumerus -37.6844 -39.3068 -57.6872
rradius 16.1545
rwrist 27.1129
rhand -12.0702 7.50354
rfingers 7.12502
rthumb 13.9894 -22.0058
lclavicle 2.88238e-015 -2.8625e-014
lhumerus -27.719 17.8708 71.6806
lradius 46.0152
lwrist -9.64476
lhand -4.78395 36.9737
lfingers 7.12502
lthumb 21.001 65.8567
rfemur -35.5262 -0.965832 18.4332
rtibia 42.3112
rfoot -10.3939 -10.6019
rtoes -0.888749
lfemur 9.02607 -0.88441 -18.8825
ltibia 31.0658
lfoot 9.12024 -21.5611
ltoes -23.4925
262
root 13.2577 17.9244 15.7368 4.14239 15.0223 3.49062
lowerback 5.10547 -3.26782 -6.13856
upperback 0.625543 -4.64503 2.2971
thorax -1.53026 -2.28832 6.10074
lowerneck -8.83217 -14.5878 -18.9114
upperneck 15.8766 -20.0828 15.1051
head 9.99117 -9.45265 5.42324
rclavicle -6.11263e-014 1.74931e-014
rhumerus -39.1345 -38.798 -56.7409
rradius 16.6432
rwrist 25.5784
rhand -12.3469 7.14797
rfingers 7.12502
rthumb 13.7226 -22.3796
lclavicle -6.11263e-014 1.74931e-014
lhumerus -28.7728 17.9012 71.6692
lradius 45.4389
lwrist -9.46467
lhand -4.93584 36.6178
lfingers 7.12502
lthumb 20.8551 65.5169
rfemur -34.7389 -1.20442 19.0319
rtibia 42.7044
rfoot -11.5749 -10.5872
rtoes -0.642956
lfemur 7.55458 -1.47176 -18.2545
ltibia 33.8116
lfoot 12.8773 -21.7142
ltoes -18.3395
263
root 13.2618 17.9382 15.9207 3.6468 15.2558 2.47731
lowerback 5.44418 -3.21327 -5.19679
upperback 0.372062 -4.5317 2.58322
thorax -2.0495 -2.21134 5.90129
lowerneck -8.54996 -14.2514 -18.6783
upperneck 16.6389 -19.6918 14.6522
head 10.0542 -9.30193 5.33631
rclavicle 3.4191e-014 -3.97569e-015
rhumerus -40.3171 -38.6227 -55.8972
rradius 16.8207
rwrist 24.4949
rhand -12.5503 7.30389
rfingers 7.12502
rthumb 13.5266 -22.2368
lclavicle 3.4191e-014 -3.97569e-015
lhumerus -29.591 17.8702 71.6316
lradius 44.6465
lwrist -9.22058
lhand -5.01334 36.5078
lfingers 7.12502
lthumb 20.7806 65.415
rfemur -33.8041 -0.916575 20.2626
rtibia 42.8613
rfoot -12.3082 -11.1678
rtoes -1.64902
lfemur 6.13451 -1.81115 -16.8888
ltibia 36.6561
lfoot 15.3428 -22.4113
ltoes -16.8234
264
root 13.268 17.9426 16.1079 3.0001 15.4446 1.20218
lowerback 5.46655 -3.17826 -4.05091
upperback 0.518062 -4.40621 2.90098
thorax -1.98907 -2.16225 5.57621
lowerneck -9.39277 -14.209 -18.2463
upperneck 17.8245 -19.5992 14.135
head 10.5047 -9.21579 5.06363
rclavicle -3.04141e-014 -3.33958e-014
rhumerus -40.1753 -37.6103 -56.6481
rradius 17.1701
rwrist 21.9094
rhand -12.5779 6.58126
rfingers 7.12502
rthumb 13.5 -22.9612
lclavicle -3.04141e-014 -3.33958e-014
lhumerus -29.7748 18.002 71.6885
lradius 43.7957
lwrist -9.00096
lhand -4.37529 37.5777
lfingers 7.12502
lthumb 21.3935 66.4166
rfemur -32.6308 -0.877327 21.9443
rtibia 42.8264
rfoot -12.6624 -11.9087
rtoes -5.16255
lfemur 4.90702 -2.11524 -15.2119
ltibia 39.4483
lfoot 17.8548 -23.2478
ltoes -14.2953
265
root 13.2914 17.9578 16.3038 2.51713 15.702 0.405913
lowerback 5.36368 -3.13853 -3.14922
upperback 0.63503 -4.29216 3.05571
thorax -1.87928 -2.11629 5.21107
lowerneck -7.38308 -13.1524 -18.0912
upperneck 15.9594 -18.5201 15.5623
head 9.43019 -8.7324 5.8782
rclavicle 2.13694e-014 1.74931e-014
rhumerus -40.9003 -38.8576 -55.4948
rradius 16.9054
rwrist 21.8098
rhand -12.6441 6.5997
rfingers 7.12502
rthumb 13.4362 -22.947
lclavicle 2.13694e-014 1.74931e-014
lhumerus -30.0013 17.9585 71.817
lradius 42.989
lwrist -8.82123
lhand -3.78571 38.5962
lfingers 7.12502
lthumb 21.9597 67.3698
rfemur -31.4247 -1.32938 23.0238
rtibia 42.6697
rfoot -13.38 -12.1495
rtoes -6.83245
lfemur 3.65695 -2.51556 -14.1635
ltibia 42.0819
lfoot 20.828 -23.7746
ltoes -10.6624
266
root 13.3053 17.9882 16.5066 2.18727 15.8121 0.185065
lowerback 5.31306 -3.04621 -3.0715
upperback 0.640967 -4.1611 3.16614
thorax -1.85679 -2.05185 5.27183
lowerneck -10.8828 -13.9559 -17.1339
upperneck 20.0316 -19.1781 12.8781
head 11.2418 -8.9558 4.4631
rclavicle 5.94366e-014 -2.62396e-014
rhumerus -42.4792 -41.2199 -52.8955
rradius 16.3549
rwrist 23.862
rhand -12.5601 8.91934
rfingers 7.12502
rthumb 13.5172 -20.622
lclavicle 5.94366e-014 -2.62396e-014
lhumerus -30.3774 18.1157 71.9604
lradius 42.0451
lwrist -8.86553
lhand -4.03298 38.5352
lfingers 7.12502
lthumb 21.7223 67.3364
rfemur -30.2999 -1.32309 23.2947
rtibia 42.465
rfoot -14.2631 -12.1929
rtoes -5.57801
lfemur 2.41059 -2.70253 -13.7392
ltibia 44.5366
lfoot 23.5564 -23.7653
ltoes -8.1422
267
root 13.3139 18.0183 16.7032 1.66598 15.7546 -0.407342
lowerback 5.28069 -2.9007 -2.79096
upperback 0.80572 -3.94558 3.42552
thorax -1.6932 -1.95254 5.3641
lowerneck -11.0768 -13.6801 -16.8498
upperneck 20.2599 -18.8281 12.8486
head 11.2693 -8.76798 4.47548
rclavicle 3.28989e-014 -7.95139e-016
rhumerus -41.6669 -38.9326 -54.7227
rradius 17.1628
rwrist 20.3063
rhand -12.2256 8.00856
rfingers 7.12502
rthumb 13.8396 -21.511
lclavicle 3.28989e-014 -7.95139e-016
lhumerus -30.4547 18.4034 72.2152
lradius 41.0041
lwrist -9.22856
lhand -3.6346 38.6526
lfingers 7.12502
lthumb 22.1048 67.4091
rfemur -29.0606 -0.988137 23.9995
rtibia 42.2635
rfoot -14.9453 -12.4438
rtoes -4.87692
lfemur 1.31739 -2.71947 -12.9225
ltibia 46.8276
lfoot 25.491 -23.7158
ltoes -6.39636
268
root 13.3411 18.031 16.881 1.3101 15.7778 -0.752873
lowerback 5.27496 -2.82568 -2.47651
upperback 0.92546 -3.8263 3.524
thorax -1.59368 -1.89846 5.27786
lowerneck -12.3137 -13.656 -16.2245
upperneck 21.4412 -18.6892 12.1023
head 11.7714 -8.65305 4.0749
rclavicle 4.01545e-014 -1.11319e-014
rhumerus -40.7226 -36.2472 -57.068
rradius 18.2602
rwrist 16.0491
rhand -11.9658 7.79284
rfingers 7.12502
rthumb 14.09 -21.7095
lclavicle 4.01545e-014 -1.11319e-014
lhumerus -30.6079 18.4981 72.3424
lradius 40.1355
lwrist -9.59286
lhand -2.75535 38.999
lfingers 7.12502
lthumb 22.9487 67.6532
rfemur -27.8713 -1.20513 24.5551
rtibia 42.0921
rfoot -15.4461 -12.7993
rtoes -8.03171
lfemur 0.104537 -2.72995 -12.4331
ltibia 49.072
lfoot 26.6514 -23.457
ltoes -3.50062
269
root 13.3717 18.0376 17.0568 1.32415 15.8381 -0.151234
lowerback 5.12763 -2.80682 -3.02995
upperback 0.927287 -3.83548 3.30298
thorax -1.48713 -1.90401 5.35082
lowerneck -9.92763 -12.5509 -16.4935
upperneck 19.4738 -17.6537 14.0603
head 10.6586 -8.1721 5.16383
rclavicle -6.89783e-014 8.74653e-015
rhumerus -40.7677 -35.7169 -57.6039
rradius 18.7753
rwrist 15.1159
rhand -12.0335 8.15529
rfingers 7.12502
rthumb 14.0247 -21.3516
lclavicle -6.89783e-014 8.74653e-015
lhumerus -30.8875 18.5886 72.2235
lradius 39.1582
lwrist -9.97589
lhand -2.68088 38.9045
lfingers 7.12502
lthumb 23.0202 67.5498
rfemur -26.7826 -1.44262 24.033
rtibia 41.8683
rfoot -15.8405 -13.073
rtoes -10.3469
lfemur -1.16913 -2.66961 -12.9791
ltibia 51.31
lfoot 26.0788 -23.7237
ltoes -4.52245
270
root 13.3907 18.0497 17.2325 1.28717 15.7063 0.265522
lowerback 4.98187 -2.70293 -3.51264
upperback 0.928223 -3.72417 3.12652
thorax -1.39819 -1.84927 5.42499
lowerneck -12.5242 -12.8547 -15.5442
upperneck 22.164 -17.8469 12.4452
head 11.9177 -8.17036 4.27579
rclavicle -3.84648e-014 3.18055e-015
rhumerus -40.7805 -35.2024 -58.1443
rradius 19.1
rwrist 14.4681
rhand -12.0829 8.50702
rfingers 7.12502
rthumb 13.9771 -21.0031
lclavicle -3.84648e-014 3.18055e-015
lhumerus -31.1269 18.7643 72.069
lradius 37.9898
lwrist -10.611
lhand -3.63858 38.196
lfingers 7.12502
lthumb 22.101 66.9529
rfemur -25.7203 -1.23024 23.682
rtibia 41.4921
rfoot -16.3545 -13.321
rtoes -9.91543
lfemur -2.41644 -2.46164 -13.3142
ltibia 53.4963
lfoot 24.3283 -24.2248
ltoes -7.32331
271
root 13.4011 18.0726 17.4019 0.935697 15.3475 -0.539036
lowerback 5.09575 -2.41662 -2.80353
upperback 0.807832 -3.3003 3.32649
thorax -1.66525 -1.63008 5.22238
lowerneck -10.0919 -12.0586 -16.1222
upperneck 20.576 -17.1425 14.0575
head 10.965 -7.88886 5.21563
rclavicle -1.1778e-014 1.03368e-014
rhumerus -40.6152 -33.8175 -59.079
rradius 19.3562
rwrist 12.3427
rhand -11.9295 8.61872
rfingers 7.12502
rthumb 14.1249 -20.8812
lclavicle -1.1778e-014 1.03368e-014
lhumerus -31.7725 18.6194 72.1624
lradius 37.2521
lwrist -11.3503
lhand -4.16882 37.6177
lfingers 7.12502
lthumb 21.5918 66.434
rfemur -24.691 -0.65983 24.6842
rtibia 40.9887
rfoot -16.9533 -13.6911
rtoes -9.68467
lfemur -3.76435 -2.06181 -12.2362
ltibia 55.5983
lfoot 23.2033 -22.9484
ltoes -5.09254
